<?xml version="1.0" encoding="UTF-8"?>
<svg xmlns="http://www.w3.org/2000/svg" xmlns:xlink="http://www.w3.org/1999/xlink" width="130pt" height="130pt" viewBox="0 0 130 130" version="1.1">
<g id="surface1">
<path style=" stroke:none;fill-rule:nonzero;fill:rgb(14.509804%,71.764706%,82.745098%);fill-opacity:1;" d="M 130 65 C 130 100.898438 100.898438 130 65 130 C 29.101562 130 0 100.898438 0 65 C 0 29.101562 29.101562 0 65 0 C 100.898438 0 130 29.101562 130 65 Z M 130 65 "/>
<path style=" stroke:none;fill-rule:nonzero;fill:rgb(98.431373%,78.431373%,78.431373%);fill-opacity:1;" d="M 43.726562 93.363281 C 43.726562 93.363281 48.191406 81.085938 40.847656 72.796875 C 40.449219 72.347656 40.453125 71.664062 40.859375 71.21875 C 43.394531 68.449219 47.898438 68.507812 54.363281 80.363281 C 56.050781 83.457031 59.574219 83.292969 62.636719 81.546875 C 68.460938 78.222656 76.867188 67.628906 85.683594 70.210938 C 86.082031 70.328125 86.390625 70.648438 86.496094 71.050781 C 86.597656 71.457031 86.480469 71.882812 86.183594 72.179688 L 55.546875 102.816406 Z M 43.726562 93.363281 "/>
<path style=" stroke:none;fill-rule:nonzero;fill:rgb(94.117647%,94.509804%,94.509804%);fill-opacity:1;" d="M 102.816406 68.546875 C 102.816406 69.199219 102.289062 69.726562 101.636719 69.726562 L 28.363281 69.726562 C 27.710938 69.726562 27.183594 69.199219 27.183594 68.546875 L 27.183594 66.183594 C 27.183594 65.53125 27.710938 65 28.363281 65 L 101.636719 65 C 102.289062 65 102.816406 65.53125 102.816406 66.183594 Z M 102.816406 68.546875 "/>
<path style=" stroke:none;fill-rule:nonzero;fill:rgb(100%,100%,100%);fill-opacity:1;" d="M 65 31.910156 C 66.230469 31.910156 67.402344 31.964844 68.546875 32.046875 L 68.546875 28.363281 C 68.546875 27.710938 68.015625 27.183594 67.363281 27.183594 L 62.636719 27.183594 C 61.984375 27.183594 61.453125 27.710938 61.453125 28.363281 L 61.453125 32.046875 C 62.597656 31.964844 63.769531 31.910156 65 31.910156 Z M 65 31.910156 "/>
<path style=" stroke:none;fill-rule:nonzero;fill:rgb(88.627451%,89.411765%,89.803922%);fill-opacity:1;" d="M 31.910156 65 C 31.910156 65 30.726562 31.910156 65 31.910156 C 99.273438 31.910156 98.089844 65 98.089844 65 Z M 31.910156 65 "/>
<path style=" stroke:none;fill-rule:nonzero;fill:rgb(24.313725%,24.313725%,24.705882%);fill-opacity:1;" d="M 43.726562 93.363281 L 31.910156 102.816406 L 55.546875 102.816406 Z M 43.726562 93.363281 "/>
<path style=" stroke:none;fill-rule:nonzero;fill:rgb(100%,100%,100%);fill-opacity:1;" d="M 65 31.910156 C 30.726562 31.910156 31.910156 65 31.910156 65 L 65 65 Z M 65 31.910156 "/>
<path style=" stroke:none;fill-rule:nonzero;fill:rgb(98.431373%,78.431373%,78.431373%);fill-opacity:1;" d="M 43.726562 93.363281 C 43.726562 93.363281 48.191406 81.085938 40.847656 72.796875 C 40.449219 72.347656 40.453125 71.664062 40.859375 71.21875 C 43.394531 68.449219 47.898438 68.507812 54.363281 80.363281 C 56.050781 83.457031 59.574219 83.292969 62.636719 81.546875 C 68.460938 78.222656 76.867188 67.628906 85.683594 70.210938 C 86.082031 70.328125 86.390625 70.648438 86.496094 71.050781 C 86.597656 71.457031 86.480469 71.882812 86.183594 72.179688 L 55.546875 102.816406 Z M 43.726562 93.363281 "/>
<path style=" stroke:none;fill-rule:nonzero;fill:rgb(96.862745%,70.588235%,70.588235%);fill-opacity:1;" d="M 86.183594 72.179688 C 86.480469 71.882812 86.597656 71.457031 86.496094 71.050781 C 86.390625 70.644531 86.082031 70.328125 85.683594 70.210938 C 76.867188 67.628906 68.460938 78.222656 62.636719 81.546875 C 59.574219 83.292969 56.050781 83.457031 54.363281 80.363281 C 47.898438 68.507812 43.394531 68.449219 40.859375 71.21875 C 40.453125 71.664062 40.449219 72.347656 40.847656 72.796875 C 48.191406 81.082031 43.726562 93.363281 43.726562 93.363281 L 46.949219 95.941406 L 83.558594 74.808594 Z M 86.183594 72.179688 "/>
</g>
</svg>
